<svg width="39" height="40" viewBox="0 0 39 40" fill="none" xmlns="http://www.w3.org/2000/svg">
<path d="M1 20.1092C1 24.9912 2.91146 29.6732 6.31388 33.1253C9.71631 36.5774 14.331 38.5168 19.1427 38.5168C23.9545 38.5168 28.5692 36.5774 31.9716 33.1253C35.374 29.6732 37.2855 24.9912 37.2855 20.1092C37.2855 15.2272 35.374 10.5452 31.9716 7.09311C28.5692 3.64102 23.9545 1.70166 19.1427 1.70166C14.331 1.70166 9.71631 3.64102 6.31388 7.09311C2.91146 10.5452 1 15.2272 1 20.1092Z" stroke="#00ADCC" stroke-width="2" stroke-linecap="round" stroke-linejoin="round"/>
<path d="M29.4399 18.0092C29.4399 17.7306 29.3251 17.4635 29.1208 17.2665C28.9164 17.0696 28.6393 16.9589 28.3503 16.9589H22.902V11.7075C22.902 11.429 22.7872 11.1618 22.5829 10.9648C22.3785 10.7679 22.1014 10.6572 21.8124 10.6572H17.4537C17.1648 10.6572 16.8876 10.7679 16.6832 10.9648C16.4789 11.1618 16.3641 11.429 16.3641 11.7075V16.9589H10.9158C10.6268 16.9589 10.3497 17.0696 10.1453 17.2665C9.94097 17.4635 9.82617 17.7306 9.82617 18.0092V22.2103C9.82617 22.4889 9.94097 22.756 10.1453 22.953C10.3497 23.1499 10.6268 23.2606 10.9158 23.2606H16.3641V28.512C16.3641 28.7905 16.4789 29.0577 16.6832 29.2547C16.8876 29.4516 17.1648 29.5623 17.4537 29.5623H21.8124C22.1014 29.5623 22.3785 29.4516 22.5829 29.2547C22.7872 29.0577 22.902 28.7905 22.902 28.512V23.2606H28.3503C28.6393 23.2606 28.9164 23.1499 29.1208 22.953C29.3251 22.756 29.4399 22.4889 29.4399 22.2103V18.0092Z" stroke="#00ADCC" stroke-width="2" stroke-linecap="round" stroke-linejoin="round"/>
</svg>
