<svg width="21" height="20" viewBox="0 0 21 20" fill="none" xmlns="http://www.w3.org/2000/svg">
<mask id="path-1-inside-1_6051_3544" fill="white">
<path d="M10.7384 0.407715L13.8529 6.80945L20.8176 7.84232L15.778 12.8226L16.9674 19.8584L10.7384 16.5348L4.50935 19.8584L5.69871 12.8226L0.659058 7.84232L7.62385 6.80945L10.7384 0.407715Z"/>
</mask>
<path d="M10.7384 0.407715L27.8237 -7.90445C24.6427 -14.4427 18.0093 -18.5923 10.7384 -18.5923C3.46736 -18.5923 -3.16603 -14.4427 -6.34696 -7.90445L10.7384 0.407715ZM13.8529 6.80945L-3.23246 15.1216C-0.488633 20.7614 4.86166 24.6839 11.0657 25.6039L13.8529 6.80945ZM20.8176 7.84232L34.1728 21.3567C39.2932 16.2967 41.1141 8.77752 38.8762 1.93552C36.6382 -4.90648 30.7257 -9.89613 23.6048 -10.9521L20.8176 7.84232ZM15.778 12.8226L2.42283 -0.691832C-1.98098 3.66008 -3.98818 9.88476 -2.95621 15.9895L15.778 12.8226ZM16.9674 19.8584L8.02315 36.6214C14.4151 40.032 22.1903 39.5106 28.0697 35.2771C33.9491 31.0436 36.9092 23.835 35.7016 16.6914L16.9674 19.8584ZM10.7384 16.5348L19.6826 -0.228314C14.0927 -3.21087 7.38399 -3.21087 1.79414 -0.228314L10.7384 16.5348ZM4.50935 19.8584L-14.2249 16.6914C-15.4324 23.835 -12.4724 31.0436 -6.593 35.2771C-0.713638 39.5106 7.06158 40.032 13.4536 36.6214L4.50935 19.8584ZM5.69871 12.8226L24.4329 15.9895C25.4649 9.88476 23.4577 3.66008 19.0539 -0.691832L5.69871 12.8226ZM0.659058 7.84232L-2.12813 -10.9521C-9.24897 -9.89613 -15.1615 -4.90648 -17.3995 1.93552C-19.6374 8.77752 -17.8165 16.2967 -12.6961 21.3567L0.659058 7.84232ZM7.62385 6.80945L10.411 25.6039C16.6151 24.6839 21.9653 20.7614 24.7092 15.1216L7.62385 6.80945ZM-6.34696 8.71988L-3.23246 15.1216L30.9382 -1.50271L27.8237 -7.90445L-6.34696 8.71988ZM11.0657 25.6039L18.0305 26.6368L23.6048 -10.9521L16.64 -11.985L11.0657 25.6039ZM7.46248 -5.6721L2.42283 -0.691832L29.1332 26.337L34.1728 21.3567L7.46248 -5.6721ZM-2.95621 15.9895L-1.76685 23.0253L35.7016 16.6914L34.5122 9.65567L-2.95621 15.9895ZM25.9116 3.09527L19.6826 -0.228314L1.79414 33.2979L8.02315 36.6214L25.9116 3.09527ZM1.79414 -0.228314L-4.43486 3.09527L13.4536 36.6214L19.6826 33.2979L1.79414 -0.228314ZM23.2436 23.0253L24.4329 15.9895L-13.0355 9.65567L-14.2249 16.6914L23.2436 23.0253ZM19.0539 -0.691832L14.0142 -5.6721L-12.6961 21.3567L-7.65647 26.337L19.0539 -0.691832ZM3.44625 26.6368L10.411 25.6039L4.83666 -11.985L-2.12813 -10.9521L3.44625 26.6368ZM24.7092 15.1216L27.8237 8.71988L-6.34696 -7.90445L-9.46146 -1.50271L24.7092 15.1216Z" fill="#F8993A" mask="url(#path-1-inside-1_6051_3544)"/>
</svg>
